name Walk4.mot
datacolumns 19
datarows 22
range 2.39700000 2.41800000
endheader

                time	   L_ground_force_vx	   L_ground_force_vy	   L_ground_force_vz	   L_ground_force_px	   L_ground_force_py	   L_ground_force_pz	   R_ground_force_vx	   R_ground_force_vy	   R_ground_force_vz	   R_ground_force_px	   R_ground_force_py	   R_ground_force_pz	   L_ground_torque_x	   L_ground_torque_y	   L_ground_torque_z	   R_ground_torque_x	   R_ground_torque_y	   R_ground_torque_z	
          2.39700000	          0.00000001	          0.00000009	         -0.00000001	         -0.00000000	          0.00000000	         -0.00000000	         22.08422844	         91.50664822	          5.11952526	          0.19682266	          0.00000000	          0.02775566	          0.00000000	         -0.00000000	          0.00000000	          0.00000000	         -5.11126720	          0.00000000	
          2.39800000	          0.00000001	          0.00000007	         -0.00000001	         -0.00000000	          0.00000000	         -0.00000000	         20.77971366	         85.49702865	          5.05835263	          0.19157306	          0.00000000	          0.02698708	          0.00000000	         -0.00000000	          0.00000000	          0.00000000	         -4.84453646	          0.00000000	
          2.39900000	          0.00000000	          0.00000006	         -0.00000001	         -0.00000000	          0.00000000	         -0.00000000	         19.50963337	         79.68610671	          4.98452089	          0.18616964	          0.00000000	          0.02620053	          0.00000000	         -0.00000000	          0.00000000	          0.00000000	         -4.58294677	          0.00000000	
          2.40000000	          0.00000000	          0.00000005	         -0.00000001	         -0.00000000	          0.00000000	         -0.00000000	         18.27527221	         74.07625560	          4.89906898	          0.18062195	          0.00000000	          0.02539703	          0.00000000	         -0.00000000	          0.00000000	          0.00000000	         -4.32685113	          0.00000000	
          2.40100000	         -0.00000000	          0.00000004	         -0.00000001	         -0.00000000	          0.00000000	         -0.00000000	         17.07779368	         68.66933307	          4.80304336	          0.17494115	          0.00000000	          0.02457780	          0.00000000	         -0.00000000	          0.00000000	          0.00000000	         -4.07658588	          0.00000000	
          2.40200000	         -0.00000001	          0.00000002	         -0.00000001	         -0.00000000	          0.00000000	         -0.00000000	         15.91823360	         63.46668779	          4.69749111	          0.16914007	          0.00000000	          0.02374428	          0.00000000	         -0.00000000	          0.00000000	          0.00000000	         -3.83246921	          0.00000000	
          2.40300000	         -0.00000001	          0.00000001	         -0.00000001	         -0.00000000	          0.00000000	         -0.00000000	         14.79749320	         58.46916999	          4.58345339	          0.16323339	          0.00000000	          0.02289820	          0.00000000	         -0.00000000	          0.00000000	          0.00000000	         -3.59479933	          0.00000000	
          2.40400000	         -0.00000001	          0.00000001	         -0.00000001	         -0.00000000	          0.00000000	         -0.00000000	         13.71633196	         53.67714300	          4.46195881	          0.15723777	          0.00000000	          0.02204157	          0.00000000	         -0.00000000	          0.00000000	          0.00000000	         -3.36385220	          0.00000000	
          2.40500000	         -0.00000001	         -0.00000000	         -0.00000000	         -0.00000000	          0.00000000	         -0.00000000	         12.67536075	         49.09049209	          4.33401636	          0.15117193	          0.00000000	          0.02117674	          0.00000000	         -0.00000000	          0.00000000	          0.00000000	         -3.13987903	          0.00000000	
          2.40600000	         -0.00000002	         -0.00000001	         -0.00000000	         -0.00000000	          0.00000000	         -0.00000000	         11.67503594	         44.70862706	          4.20060760	          0.14505679	          0.00000000	          0.02030642	          0.00000000	         -0.00000000	          0.00000000	          0.00000000	         -2.92310355	          0.00000000	
          2.40700000	         -0.00000002	         -0.00000002	         -0.00000000	         -0.00000000	          0.00000000	         -0.00000000	         10.71565496	         40.53046894	          4.06267756	          0.13891529	          0.00000000	          0.01943366	          0.00000000	         -0.00000000	          0.00000000	          0.00000000	         -2.71371878	          0.00000000	
          2.40800000	         -0.00000002	         -0.00000002	         -0.00000000	         -0.00000000	          0.00000000	         -0.00000000	          9.79735378	         36.55441175	          3.92112419	          0.13277131	          0.00000000	          0.01856171	          0.00000000	         -0.00000000	          0.00000000	          0.00000000	         -2.51188298	          0.00000000	
          2.40900000	         -0.00000002	         -0.00000003	         -0.00000000	         -0.00000000	          0.00000000	         -0.00000000	          8.92010848	         32.77828490	          3.77678926	          0.12664800	          0.00000000	          0.01769376	          0.00000000	         -0.00000000	          0.00000000	          0.00000000	         -2.31771628	          0.00000000	
          2.41000000	         -0.00000002	         -0.00000004	         -0.00000000	         -0.00000000	          0.00000000	         -0.00000000	          8.08374321	         29.19935856	          3.63045468	          0.12056675	          0.00000000	          0.01683274	          0.00000000	         -0.00000000	          0.00000000	          0.00000000	         -2.13130033	          0.00000000	
          2.41100000	         -0.00000002	         -0.00000004	         -0.00000000	         -0.00000000	          0.00000000	         -0.00000000	          7.28794261	         25.81438986	          3.48284342	          0.11454696	          0.00000000	          0.01598133	          0.00000000	         -0.00000000	          0.00000000	          0.00000000	         -1.95268055	          0.00000000	
          2.41200000	         -0.00000002	         -0.00000004	         -0.00000000	         -0.00000000	          0.00000000	         -0.00000000	          6.53226486	         22.61967873	          3.33462184	          0.10860614	          0.00000000	          0.01514191	          0.00000000	         -0.00000000	          0.00000000	          0.00000000	         -1.78186904	          0.00000000	
          2.41300000	         -0.00000002	         -0.00000005	         -0.00000000	         -0.00000000	          0.00000000	         -0.00000000	          5.81615407	         19.61112074	          3.18640192	          0.10276005	          0.00000000	          0.01431665	          0.00000000	         -0.00000000	          0.00000000	          0.00000000	         -1.61884737	          0.00000000	
          2.41400000	         -0.00000002	         -0.00000005	         -0.00000000	         -0.00000000	          0.00000000	         -0.00000000	          5.13895210	         16.78425702	          3.03874359	          0.09702270	          0.00000000	          0.01350746	          0.00000000	         -0.00000000	          0.00000000	          0.00000000	         -1.46356924	          0.00000000	
          2.41500000	         -0.00000002	         -0.00000005	         -0.00000000	         -0.00000000	          0.00000000	         -0.00000000	          4.49990977	         14.13432122	          2.89215709	          0.09140655	          0.00000000	          0.01271603	          0.00000000	         -0.00000000	          0.00000000	          0.00000000	         -1.31596301	          0.00000000	
          2.41600000	         -0.00000002	         -0.00000006	         -0.00000000	         -0.00000000	          0.00000000	         -0.00000000	          3.89819736	         11.65628369	          2.74710519	          0.08592250	          0.00000000	          0.01194383	          0.00000000	         -0.00000000	          0.00000000	          0.00000000	         -1.17593416	          0.00000000	
          2.41700000	         -0.00000002	         -0.00000006	         -0.00000000	         -0.00000000	          0.00000000	         -0.00000000	          3.33291467	          9.34489285	          2.60400554	          0.08058004	          0.00000000	          0.01119216	          0.00000000	         -0.00000000	          0.00000000	          0.00000000	         -1.04336756	          0.00000000	
          2.41800000	         -0.00000002	         -0.00000006	         -0.00000000	         -0.00000000	          0.00000000	         -0.00000000	          2.80310035	          7.19471391	          2.46323289	          0.07538733	          0.00000000	          0.01046211	          0.00000000	         -0.00000000	          0.00000000	          0.00000000	         -0.91812968	          0.00000000	
